<svg width="54" height="54" viewBox="0 0 54 54" fill="none" xmlns="http://www.w3.org/2000/svg">
<circle cx="27" cy="27" r="27" fill="#111316"/>
<path d="M20 41V34.92H6.92V28.44L18.28 11.8H23.08L11.08 29.48V31.04H20V24.2H24.28V41H20ZM30.1844 41V36.72L39.2244 27.4C40.611 25.96 41.6244 24.6667 42.2644 23.52C42.931 22.3467 43.2644 21.1867 43.2644 20.04C43.2644 18.5467 42.851 17.3733 42.0244 16.52C41.2244 15.6667 40.1177 15.24 38.7044 15.24C37.1577 15.24 35.931 15.6933 35.0244 16.6C34.1444 17.48 33.7044 18.6933 33.7044 20.24H29.3844C29.4377 18.4267 29.851 16.8667 30.6244 15.56C31.3977 14.2267 32.4777 13.2 33.8644 12.48C35.251 11.76 36.8777 11.4 38.7444 11.4C40.531 11.4 42.091 11.7467 43.4244 12.44C44.7577 13.1333 45.7844 14.1067 46.5044 15.36C47.2244 16.6133 47.5844 18.0933 47.5844 19.8C47.5844 21.5333 47.131 23.2267 46.2244 24.88C45.3444 26.5333 43.891 28.3733 41.8644 30.4L35.2644 37.08H48.0244V41H30.1844Z" fill="#FE551A"/>
</svg>
